<svg width="17" height="15" viewBox="0 0 17 15" fill="none" xmlns="http://www.w3.org/2000/svg">
<path d="M15.8333 3.33333H10.8333C10.6123 3.33333 10.4004 3.42113 10.2441 3.57741C10.0878 3.73369 10 3.94565 10 4.16667V6.66667H8.33333V0.833333C8.33333 0.61232 8.24554 0.400358 8.08926 0.244078C7.93298 0.0877973 7.72101 0 7.5 0H0.833333C0.61232 0 0.400358 0.0877973 0.244078 0.244078C0.0877973 0.400358 0 0.61232 0 0.833333V14.1667C0 14.3877 0.0877973 14.5996 0.244078 14.7559C0.400358 14.9122 0.61232 15 0.833333 15H15.8333C16.0543 15 16.2663 14.9122 16.4226 14.7559C16.5789 14.5996 16.6667 14.3877 16.6667 14.1667V4.16667C16.6667 3.94565 16.5789 3.73369 16.4226 3.57741C16.2663 3.42113 16.0543 3.33333 15.8333 3.33333ZM5 2.5H6.66667V4.16667H5V2.5ZM3.33333 10.8333H1.66667V9.16667H3.33333V10.8333ZM3.33333 7.5H1.66667V5.83333H3.33333V7.5ZM3.33333 4.16667H1.66667V2.5H3.33333V4.16667ZM6.66667 10.8333H5V9.16667H6.66667V10.8333ZM6.66667 7.5H5V5.83333H6.66667V7.5ZM14.1667 10.8333H12.5V9.16667H14.1667V10.8333ZM14.1667 7.5H12.5V5.83333H14.1667V7.5Z" fill="black"/>
</svg>
