<svg width="50" height="50" viewBox="0 0 50 50" fill="none" xmlns="http://www.w3.org/2000/svg">
<g id="facebook">
<g id="Group 526">
<g id="Group 521">
<circle id="Ellipse 14" cx="25" cy="25" r="25" fill="white"/>
</g>
</g>
<path id="Vector" d="M25.0906 10C16.7567 10 10 16.7567 10 25.0906C10 32.6215 15.5177 38.8636 22.7332 40V29.4537H18.8998V25.0906H22.7332V21.7658C22.7332 17.9807 24.9864 15.8935 28.4319 15.8935C30.083 15.8935 31.8126 16.1877 31.8126 16.1877V19.8989H29.9049C28.0335 19.8989 27.4479 21.064 27.4479 22.2578V25.0875H31.6299L30.9614 29.4507H27.4479V39.997C34.6634 38.8666 40.1811 32.623 40.1811 25.0906C40.1811 16.7567 33.4244 10 25.0906 10Z" fill="#0052A1"/>
</g>
</svg>
