<svg width="50" height="50" viewBox="0 0 50 50" fill="none" xmlns="http://www.w3.org/2000/svg">
<circle cx="25" cy="25" r="25" fill="white"/>
<path d="M25.0014 10C20.9276 10 20.4164 10.0178 18.8163 10.0906C17.2195 10.1638 16.1294 10.4166 15.1757 10.7875C14.1891 11.1706 13.3522 11.6831 12.5185 12.5172C11.6841 13.351 11.1716 14.1879 10.7872 15.1741C10.4153 16.1282 10.1622 17.2185 10.0903 18.8148C10.0188 20.4148 10 20.9264 10 25.0002C10 29.0739 10.0181 29.5836 10.0906 31.1837C10.1641 32.7806 10.4169 33.8706 10.7875 34.8243C11.1709 35.8109 11.6835 36.6478 12.5175 37.4815C13.351 38.3159 14.1879 38.8297 15.1738 39.2128C16.1282 39.5837 17.2185 39.8366 18.8151 39.9097C20.4151 39.9825 20.9261 40.0003 24.9995 40.0003C29.0736 40.0003 29.5833 39.9825 31.1833 39.9097C32.7802 39.8366 33.8715 39.5837 34.8259 39.2128C35.8121 38.8297 36.6478 38.3159 37.4812 37.4815C38.3156 36.6478 38.8281 35.8109 39.2125 34.8246C39.5812 33.8706 39.8344 32.7802 39.9094 31.184C39.9812 29.584 40 29.0739 40 25.0002C40 20.9264 39.9812 20.4151 39.9094 18.8151C39.8344 17.2182 39.5812 16.1282 39.2125 15.1744C38.8281 14.1879 38.3156 13.351 37.4812 12.5172C36.6468 11.6828 35.8125 11.1703 34.8249 10.7875C33.8687 10.4166 32.778 10.1638 31.1812 10.0906C29.5811 10.0178 29.0718 10 24.9967 10H25.0014ZM23.6558 12.7032C24.0551 12.7025 24.5008 12.7032 25.0014 12.7032C29.0064 12.7032 29.4811 12.7175 31.0627 12.7894C32.5252 12.8563 33.319 13.1007 33.8477 13.306C34.5478 13.5778 35.0468 13.9029 35.5715 14.4279C36.0965 14.9529 36.4215 15.4529 36.694 16.1529C36.8993 16.681 37.144 17.4748 37.2106 18.9373C37.2825 20.5185 37.2981 20.9936 37.2981 24.9967C37.2981 28.9999 37.2825 29.4749 37.2106 31.0562C37.1437 32.5187 36.8993 33.3124 36.694 33.8406C36.4221 34.5406 36.0965 35.039 35.5715 35.5637C35.0465 36.0887 34.5481 36.4137 33.8477 36.6856C33.3196 36.8918 32.5252 37.1356 31.0627 37.2025C29.4815 37.2743 29.0064 37.29 25.0014 37.29C20.9961 37.29 20.5214 37.2743 18.9401 37.2025C17.4776 37.135 16.6838 36.8906 16.1548 36.6853C15.4547 36.4134 14.9547 36.0884 14.4297 35.5634C13.9047 35.0384 13.5797 34.5396 13.3072 33.8393C13.1019 33.3112 12.8572 32.5174 12.7907 31.0549C12.7188 29.4736 12.7044 28.9986 12.7044 24.993C12.7044 20.9873 12.7188 20.5148 12.7907 18.9335C12.8575 17.471 13.1019 16.6773 13.3072 16.1485C13.5791 15.4485 13.9047 14.9485 14.4297 14.4235C14.9547 13.8985 15.4547 13.5735 16.1548 13.301C16.6835 13.0947 17.4776 12.851 18.9401 12.7838C20.3239 12.7213 20.8601 12.7025 23.6558 12.6994V12.7032ZM33.0084 15.1938C32.0146 15.1938 31.2083 15.9991 31.2083 16.9932C31.2083 17.987 32.0146 18.7932 33.0084 18.7932C34.0021 18.7932 34.8084 17.987 34.8084 16.9932C34.8084 15.9994 34.0021 15.1932 33.0084 15.1932V15.1938ZM25.0014 17.297C20.7473 17.297 17.2982 20.746 17.2982 25.0002C17.2982 29.2543 20.7473 32.7018 25.0014 32.7018C29.2555 32.7018 32.7034 29.2543 32.7034 25.0002C32.7034 20.746 29.2552 17.297 25.0011 17.297H25.0014ZM25.0014 20.0001C27.7627 20.0001 30.0015 22.2386 30.0015 25.0002C30.0015 27.7614 27.7627 30.0002 25.0014 30.0002C22.2398 30.0002 20.0014 27.7614 20.0014 25.0002C20.0014 22.2386 22.2398 20.0001 25.0014 20.0001Z" fill="#0052A1"/>
</svg>
