<svg width="50" height="50" viewBox="0 0 50 50" fill="none" xmlns="http://www.w3.org/2000/svg">
<g id="twitter">
<g id="Group 523">
<g id="Group 519">
<circle id="Ellipse 17" cx="25" cy="25" r="25" fill="white"/>
</g>
</g>
<path id="Vector" d="M36.9179 19.0727C36.9377 19.3398 36.9377 19.6054 36.9377 19.8711C36.9377 28 30.7506 37.367 19.4433 37.367C15.9597 37.367 12.7234 36.3579 10 34.6054C10.4946 34.6619 10.9709 34.6818 11.4853 34.6818C14.253 34.6884 16.9423 33.763 19.1197 32.0545C17.8365 32.0313 16.5926 31.608 15.5616 30.8436C14.5307 30.0792 13.7642 29.012 13.3691 27.7909C13.7492 27.8473 14.1309 27.8855 14.5308 27.8855C15.0819 27.8855 15.6361 27.8092 16.1505 27.6764C14.7579 27.3952 13.5057 26.6404 12.6068 25.5402C11.7079 24.4401 11.2177 23.0626 11.2197 21.6419V21.5655C12.0395 22.022 12.9905 22.3074 13.9981 22.3456C13.154 21.7847 12.4619 21.0236 11.9835 20.1303C11.5051 19.2369 11.2553 18.2389 11.2564 17.2255C11.2564 16.0837 11.5601 15.0364 12.0929 14.1236C13.638 16.0242 15.5651 17.579 17.7493 18.6874C19.9336 19.7959 22.3263 20.4332 24.7725 20.558C24.6779 20.1 24.6199 19.6253 24.6199 19.149C24.6195 18.3414 24.7783 17.5416 25.0871 16.7954C25.396 16.0492 25.8489 15.3712 26.42 14.8001C26.9911 14.229 27.6691 13.7761 28.4153 13.4672C29.1615 13.1584 29.9613 12.9996 30.7689 13C32.5397 13 34.138 13.7419 35.2616 14.9418C36.6382 14.6756 37.9583 14.173 39.1634 13.4564C38.7046 14.8774 37.7434 16.0823 36.4599 16.8454C37.6808 16.7062 38.8741 16.3851 40 15.8928C39.1591 17.1188 38.117 18.1939 36.9179 19.0727Z" fill="#0052A1"/>
</g>
</svg>
