<svg width="50" height="50" viewBox="0 0 50 50" fill="none" xmlns="http://www.w3.org/2000/svg">
<g id="tiktok">
<g id="Group 525">
<g id="Group 520">
<circle id="Ellipse 15" cx="25" cy="25" r="25" fill="white"/>
</g>
</g>
<path id="Vector" d="M36.5935 17.037C35.0978 16.7081 33.7448 15.9139 32.7285 14.7682C31.7122 13.6226 31.085 12.1844 30.9369 10.6602V10H25.7604V30.5109C25.7614 31.421 25.4761 32.3084 24.9448 33.0473C24.4135 33.7863 23.6632 34.3393 22.8001 34.6281C21.937 34.9169 21.005 34.9268 20.136 34.6564C19.2669 34.3861 18.505 33.8491 17.9581 33.1217C17.4681 32.4778 17.1681 31.7096 17.092 30.904C17.0158 30.0985 17.1665 29.2877 17.5272 28.5634C17.8878 27.839 18.4438 27.23 19.1325 26.8052C19.8212 26.3805 20.615 26.1568 21.4241 26.1597C21.8716 26.1571 22.3169 26.2229 22.7445 26.3547V21.1032C22.2469 21.0416 21.7454 21.0165 21.2441 21.0282C19.3975 21.0775 17.6054 21.6643 16.0872 22.7166C14.569 23.7689 13.3906 25.2411 12.6964 26.9529C12.0021 28.6647 11.8221 30.5418 12.1783 32.3543C12.5346 34.1669 13.4117 35.8362 14.7022 37.1579C16.0248 38.5026 17.7173 39.4237 19.5646 39.8043C21.412 40.1849 23.3307 40.0078 25.0772 39.2954C26.8236 38.583 28.3188 37.3675 29.3729 35.8033C30.4269 34.2392 30.9922 32.3971 30.9969 30.5109V20.0079C33.0847 21.4992 35.5882 22.297 38.154 22.2886V17.1871C37.65 17.1892 37.1471 17.1389 36.6535 17.037H36.5935Z" fill="#0052A1"/>
</g>
</svg>
