<svg width="37" height="36" viewBox="0 0 37 36" fill="none" xmlns="http://www.w3.org/2000/svg">
<path d="M30.8573 21.2567C29.6306 21.3633 28.324 21.4433 26.9373 21.4967C25.604 21.4967 24.1373 21.5233 22.5373 21.5767V25.1767C22.5373 26.99 22.5106 28.5367 22.4573 29.8167C22.404 31.0967 22.244 32.1367 21.9773 32.9367C21.764 33.7367 21.3906 34.3233 20.8573 34.6967C20.324 35.07 19.5773 35.2567 18.6173 35.2567C18.1373 35.2567 17.684 35.2033 17.2573 35.0967C16.884 34.99 16.5373 34.75 16.2173 34.3767C15.8973 34.0033 15.604 33.4967 15.3373 32.8567C15.124 32.1633 14.964 31.2833 14.8573 30.2167C14.804 29.4167 14.7506 28.7233 14.6973 28.1367C14.644 27.4967 14.5906 26.8567 14.5373 26.2167C14.5373 25.5767 14.5373 24.91 14.5373 24.2167C14.5373 23.47 14.5373 22.6167 14.5373 21.6567C11.8173 21.6567 9.57729 21.63 7.81729 21.5767C6.11062 21.5233 4.72395 21.39 3.65729 21.1767C2.64395 20.91 1.92395 20.51 1.49729 19.9767C1.12395 19.4433 0.937285 18.6967 0.937285 17.7367C0.937285 17.2567 0.990619 16.83 1.09729 16.4567C1.20395 16.03 1.44395 15.6567 1.81729 15.3367C2.19062 15.0167 2.69729 14.75 3.33729 14.5367C4.03062 14.27 4.91062 14.0833 5.97729 13.9767C6.77729 13.9233 7.47062 13.87 8.05729 13.8167C8.69729 13.7633 9.33729 13.7367 9.97729 13.7367C10.6173 13.6833 11.284 13.6567 11.9773 13.6567C12.724 13.6567 13.5773 13.6567 14.5373 13.6567C14.5906 12.27 14.6173 10.91 14.6173 9.57666C14.6706 8.18999 14.7506 6.80333 14.8573 5.41666C14.9106 4.13666 15.044 3.14999 15.2573 2.45666C15.4706 1.76332 15.7373 1.22999 16.0573 0.856659C16.3773 0.483324 16.7506 0.26999 17.1773 0.216658C17.604 0.109992 18.084 0.0566597 18.6173 0.0566597C19.5773 0.0566597 20.3773 0.403325 21.0173 1.09666C21.6573 1.73666 22.0306 3.14999 22.1373 5.33666C22.1906 6.56333 22.244 7.86999 22.2973 9.25666C22.3506 10.6433 22.404 12.1367 22.4573 13.7367C25.124 13.7367 27.8973 13.8167 30.7773 13.9767C32.0573 14.0833 33.044 14.2433 33.7373 14.4567C34.4306 14.6167 34.964 14.8567 35.3373 15.1767C35.7106 15.4967 35.924 15.87 35.9773 16.2967C36.084 16.7233 36.1373 17.2033 36.1373 17.7367C36.1373 18.6967 35.7906 19.4967 35.0973 20.1367C34.4573 20.7767 33.044 21.15 30.8573 21.2567Z" fill="#0052A1"/>
</svg>
